<?xml version="1.0" encoding="utf-8"?>
<!-- Generator: Adobe Illustrator 17.0.0, SVG Export Plug-In . SVG Version: 6.00 Build 0)  -->
<!DOCTYPE svg PUBLIC "-//W3C//DTD SVG 1.1//EN" "http://www.w3.org/Graphics/SVG/1.1/DTD/svg11.dtd">
<svg version="1.1" id="Layer_1" xmlns="http://www.w3.org/2000/svg" xmlns:xlink="http://www.w3.org/1999/xlink" x="0px" y="0px"
	 width="154px" height="24px" viewBox="0 0 154 24" enable-background="new 0 0 154 24" xml:space="preserve">
<path fill="#FFFFFF" d="M38.3,10.868c1.4-0.2,2.3-0.8,2.6-1.5c-0.3,0.3-1.7,0.8-2.9,0.3c0-0.2-0.2-0.3-0.2-0.5
	c-0.8-2.4-2.7-4.4-5.1-4.1c0.3,0,0.3-0.2,0.5-0.2c0.3,0,1.8-0.1,1.5-0.7c-0.2-0.5-1.8,0.3-2.4,0.3c0.5-0.3,1.4-0.5,1.4-1.1
	c-0.7,0.3-1.3,0.6-1.7,1.1c0.2-0.2,0.3-0.3,0.3-0.8c-1.8,1.1-3,3.6-3.8,5.9c-0.8-0.8-1.2-1.2-1.8-1.5c-1.5-0.9-3.2-1.7-6.2-2.7
	c0,1.1,0.5,2.4,2.1,3.2c-0.3,0-1.1,0-1.5,0.2c0.2,1.1,0.9,1.8,2.7,2.4c-0.9,0-1.2,0.3-1.7,0.8c0.3,0.8,1.2,1.7,3,1.5
	c-1.8,0.9-0.8,2.3,0.8,2.1c-2.6,2.6-6.6,2.4-8.9,0.3c6,8.3,19.1,4.8,21-3.2c1.5,0,2.4-0.5,3-1.1
	C40.1,11.168,38.9,11.068,38.3,10.868"/>
<path fill="#FFFFFF" d="M3.1,4.5v3.3H0.7v4h2.4V24h5V11.9h3.4c0,0,0.5-1.9,0.5-3.9H8.2V5.3c0-0.3,0.6-1.1,1-1.1h2.7V0H8.3
	C2.8,0,3.1,4.1,3.1,4.5"/>
<rect x="48.2" y="0.05" fill="none" width="23.8" height="23.9"/>
<path fill="#FFFFFF" d="M69.3,0.05H50.9c-1.5,0-2.7,1.2-2.7,2.7v18.5c0,1.5,1.2,2.7,2.7,2.7h18.4c1.5,0,2.7-1.2,2.7-2.7V3.05
	C72,1.45,70.8,0.05,69.3,0.05 M64.9,3.65c0-0.5,0.5-0.6,0.6-0.6h3.2c0.5,0,0.6,0.2,0.6,0.6v3.2c0,0.5-0.5,0.6-0.6,0.6h-3.2
	c-0.5,0-0.6-0.2-0.6-0.6V3.65z M60,7.75c2.6,0,4.7,2,4.7,4.7s-2,4.7-4.7,4.7c-2.6,0-4.7-2-4.7-4.7S57.6,7.75,60,7.75 M69.4,20.85
	c0,0.5-0.5,0.6-0.6,0.6H51.3c-0.5,0-0.6-0.2-0.6-0.6v-10.3h2.1c-0.2,0.6-0.2,1.2-0.2,2c0,4.1,3.2,7.3,7.6,7.3c4.1,0,7.6-3.2,7.6-7.3
	c0-0.6,0-1.4-0.2-2h2.1v10.5C69.7,20.85,69.4,20.85,69.4,20.85"/>
<path fill="#26F4F5" d="M123.3,10.868c1.4-0.2,2.3-0.8,2.6-1.5c-0.3,0.3-1.7,0.8-2.9,0.3c0-0.2-0.2-0.3-0.2-0.5
	c-0.8-2.4-2.7-4.4-5.1-4.1c0.3,0,0.3-0.2,0.5-0.2c0.3,0,1.8-0.1,1.5-0.7c-0.2-0.5-1.8,0.3-2.4,0.3c0.5-0.3,1.4-0.5,1.4-1.1
	c-0.7,0.3-1.3,0.6-1.7,1.1c0.2-0.2,0.3-0.3,0.3-0.8c-1.8,1.1-3,3.6-3.8,5.9c-0.8-0.8-1.2-1.2-1.8-1.5c-1.5-0.9-3.2-1.7-6.2-2.7
	c0,1.1,0.5,2.4,2.1,3.2c-0.3,0-1.1,0-1.5,0.2c0.2,1.1,0.9,1.8,2.7,2.4c-0.9,0-1.2,0.3-1.7,0.8c0.3,0.8,1.2,1.7,3,1.5
	c-1.8,0.9-0.8,2.3,0.8,2.1c-2.6,2.6-6.6,2.4-8.9,0.3c6,8.3,19.1,4.8,21-3.2c1.5,0,2.4-0.5,3-1.1
	C125.1,11.168,123.9,11.068,123.3,10.868"/>
<path fill="#26F4F5" d="M85.75,4.5v3.3h-2.4v4h2.4V24h5v-12.1h3.4c0,0,0.5-1.9,0.5-3.9h-3.8V5.3c0-0.3,0.6-1.1,1-1.1h2.7V0h-3.6
	C85.45,0,85.75,4.1,85.75,4.5"/>
<rect x="130.2" y="0.05" fill="none" width="23.8" height="23.9"/>
<path fill="#26F4F5" d="M151.3,0.05h-18.4c-1.5,0-2.7,1.2-2.7,2.7v18.5c0,1.5,1.2,2.7,2.7,2.7h18.4c1.5,0,2.7-1.2,2.7-2.7V3.05
	C154,1.45,152.8,0.05,151.3,0.05 M146.9,3.65c0-0.5,0.5-0.6,0.6-0.6h3.2c0.5,0,0.6,0.2,0.6,0.6v3.2c0,0.5-0.5,0.6-0.6,0.6h-3.2
	c-0.5,0-0.6-0.2-0.6-0.6V3.65z M142,7.75c2.6,0,4.7,2,4.7,4.7s-2,4.7-4.7,4.7c-2.6,0-4.7-2-4.7-4.7S139.6,7.75,142,7.75
	 M151.4,20.85c0,0.5-0.5,0.6-0.6,0.6h-17.5c-0.5,0-0.6-0.2-0.6-0.6v-10.3h2.1c-0.2,0.6-0.2,1.2-0.2,2c0,4.1,3.2,7.3,7.6,7.3
	c4.1,0,7.6-3.2,7.6-7.3c0-0.6,0-1.4-0.2-2h2.1v10.5C151.7,20.85,151.4,20.85,151.4,20.85"/>
</svg>
